<?xml version="1.0" encoding="UTF-8"?>
<svg id="Layer_2" data-name="Layer 2" xmlns="http://www.w3.org/2000/svg" viewBox="0 0 39.38 37.61">
  <defs>
    <style>
      .cls-1 {
        fill: #fff;
      }
    </style>
  </defs>
  <path class="cls-1" d="M38.69,14.61l-5.31-4.05c-.44-.33-.69-.85-.69-1.4V2.45c0-.97-.79-1.76-1.76-1.76h-1.77c-.97,0-1.76.79-1.76,1.76h0c0,1.45-1.67,2.28-2.82,1.4l-3.82-2.92c-.63-.48-1.5-.48-2.13,0L.69,14.61c-.77.59-.92,1.69-.33,2.46l1.59,2.08c.31.4.88.48,1.28.17h0c.6-.46,1.47-.03,1.47.73v15.69c0,.97.79,1.76,1.76,1.76h26.47c.97,0,1.76-.79,1.76-1.76v-15.69c0-.76.87-1.19,1.47-.73h0c.4.31.98.23,1.28-.17l1.59-2.08c.59-.77.44-1.87-.33-2.46ZM31.75,34.56h-6.77v-11.16h-10.57v11.16h-6.77v-18.23l12.06-9.21,12.06,9.21v18.23Z"/>
</svg>